<?xml version="1.0" encoding="UTF-8" standalone="no"?>
<svg
   xmlns:dc="http://purl.org/dc/elements/1.1/"
   xmlns:cc="http://creativecommons.org/ns#"
   xmlns:rdf="http://www.w3.org/1999/02/22-rdf-syntax-ns#"
   xmlns:svg="http://www.w3.org/2000/svg"
   xmlns="http://www.w3.org/2000/svg"
   xmlns:xlink="http://www.w3.org/1999/xlink"
   xmlns:sodipodi="http://sodipodi.sourceforge.net/DTD/sodipodi-0.dtd"
   xmlns:inkscape="http://www.inkscape.org/namespaces/inkscape"
   width="189px"
   height="192px"
   viewBox="0 0 210 297"
   version="1.1"
   id="svg8"
   inkscape:version="1.0 (4035a4fb49, 2020-05-01)"
   sodipodi:docname="futlink1.svg">
  <defs
     id="defs2">
    <linearGradient
       id="linearGradient873"
       inkscape:collect="always">
      <stop
         id="stop869"
         offset="0"
         style="stop-color:#000000;stop-opacity:1;" />
      <stop
         id="stop871"
         offset="1"
         style="stop-color:#d45500;stop-opacity:1" />
    </linearGradient>
    <linearGradient
       id="linearGradient865"
       inkscape:collect="always">
      <stop
         id="stop861"
         offset="0"
         style="stop-color:#ff6600;stop-opacity:1" />
      <stop
         id="stop863"
         offset="1"
         style="stop-color:#000000;stop-opacity:1" />
    </linearGradient>
    <linearGradient
       id="linearGradient857"
       inkscape:collect="always">
      <stop
         id="stop853"
         offset="0"
         style="stop-color:#000000;stop-opacity:1;" />
      <stop
         id="stop855"
         offset="1"
         style="stop-color:#ff6600;stop-opacity:1" />
    </linearGradient>
    <linearGradient
       gradientUnits="userSpaceOnUse"
       y2="138.17834"
       x2="89.535294"
       y1="162.23259"
       x1="121.0731"
       id="linearGradient859"
       xlink:href="#linearGradient857"
       inkscape:collect="always" />
    <linearGradient
       gradientUnits="userSpaceOnUse"
       y2="160.32858"
       x2="131.4088"
       y1="136.5416"
       x1="114.88448"
       id="linearGradient867"
       xlink:href="#linearGradient865"
       inkscape:collect="always" />
    <linearGradient
       gradientUnits="userSpaceOnUse"
       y2="128.33574"
       x2="120.14818"
       y1="140.0956"
       x1="90.789017"
       id="linearGradient875"
       xlink:href="#linearGradient873"
       inkscape:collect="always" />
  </defs>
  <sodipodi:namedview
     id="base"
     pagecolor="#ffffff"
     bordercolor="#666666"
     borderopacity="1.0"
     inkscape:pageopacity="0.0"
     inkscape:pageshadow="2"
     inkscape:zoom="0.98994949"
     inkscape:cx="400"
     inkscape:cy="560"
     inkscape:document-units="mm"
     inkscape:current-layer="layer1"
     inkscape:document-rotation="0"
     showgrid="false"
     inkscape:showpageshadow="true"
     showborder="false"
     inkscape:snap-global="false"
     inkscape:window-width="1366"
     inkscape:window-height="705"
     inkscape:window-x="-8"
     inkscape:window-y="-8"
     inkscape:window-maximized="1">
    <inkscape:grid
       type="xygrid"
       id="grid833" />
  </sodipodi:namedview>
  <metadata
     id="metadata5">
    <rdf:RDF>
      <cc:Work
         rdf:about="">
        <dc:format>image/svg+xml</dc:format>
        <dc:type
           rdf:resource="http://purl.org/dc/dcmitype/StillImage" />
        <dc:title></dc:title>
      </cc:Work>
    </rdf:RDF>
  </metadata>
  <g
     inkscape:label="Layer 1"
     inkscape:groupmode="layer"
     id="layer1">
    <path
       style="color:#000000;font-style:normal;font-variant:normal;font-weight:normal;font-stretch:normal;font-size:medium;line-height:normal;font-family:sans-serif;font-variant-ligatures:normal;font-variant-position:normal;font-variant-caps:normal;font-variant-numeric:normal;font-variant-alternates:normal;font-variant-east-asian:normal;font-feature-settings:normal;font-variation-settings:normal;text-indent:0;text-align:start;text-decoration:none;text-decoration-line:none;text-decoration-style:solid;text-decoration-color:#000000;letter-spacing:normal;word-spacing:normal;text-transform:none;writing-mode:lr-tb;direction:ltr;text-orientation:mixed;dominant-baseline:auto;baseline-shift:baseline;text-anchor:start;white-space:normal;shape-padding:0;shape-margin:0;inline-size:0;clip-rule:nonzero;display:inline;overflow:visible;visibility:visible;opacity:1;isolation:auto;mix-blend-mode:normal;color-interpolation:sRGB;color-interpolation-filters:linearRGB;solid-color:#000000;solid-opacity:1;vector-effect:none;fill:url(#linearGradient859);fill-opacity:1;fill-rule:nonzero;stroke:none;stroke-width:4.165;stroke-linecap:butt;stroke-linejoin:miter;stroke-miterlimit:4;stroke-dasharray:none;stroke-dashoffset:0;stroke-opacity:1;color-rendering:auto;image-rendering:auto;shape-rendering:auto;text-rendering:auto;enable-background:accumulate;stop-color:#000000;stop-opacity:1"
       d="m 81.326172,140.79297 -13.058594,9.79492 12.890625,12.89063 h 43.574587 l 4.91369,-4.16602 H 82.882812 l -8.27539,-8.27539 8.107422,-6.08008 7.243489,-0.19215 2.645183,-3.97191 z"
       id="path839"
       sodipodi:nodetypes="ccccccccccc" />
    <path
       sodipodi:nodetypes="ccccccccccc"
       id="path841"
       d="m 128.70081,131.40788 -0.10326,-16.3235 -18.03034,2.69137 -25.925384,35.02313 0.424969,6.42802 27.822775,-37.58636 11.57492,-1.72778 0.0632,10.1338 -4.15518,5.93628 1.61864,4.48923 z"
       style="color:#000000;font-style:normal;font-variant:normal;font-weight:normal;font-stretch:normal;font-size:medium;line-height:normal;font-family:sans-serif;font-variant-ligatures:normal;font-variant-position:normal;font-variant-caps:normal;font-variant-numeric:normal;font-variant-alternates:normal;font-variant-east-asian:normal;font-feature-settings:normal;font-variation-settings:normal;text-indent:0;text-align:start;text-decoration:none;text-decoration-line:none;text-decoration-style:solid;text-decoration-color:#000000;letter-spacing:normal;word-spacing:normal;text-transform:none;writing-mode:lr-tb;direction:ltr;text-orientation:mixed;dominant-baseline:auto;baseline-shift:baseline;text-anchor:start;white-space:normal;shape-padding:0;shape-margin:0;inline-size:0;clip-rule:nonzero;display:inline;overflow:visible;visibility:visible;opacity:1;isolation:auto;mix-blend-mode:normal;color-interpolation:sRGB;color-interpolation-filters:linearRGB;solid-color:#000000;solid-opacity:1;vector-effect:none;fill:url(#linearGradient875);fill-opacity:1;fill-rule:nonzero;stroke:none;stroke-width:4.165;stroke-linecap:butt;stroke-linejoin:miter;stroke-miterlimit:4;stroke-dasharray:none;stroke-dashoffset:0;stroke-opacity:1;color-rendering:auto;image-rendering:auto;shape-rendering:auto;text-rendering:auto;enable-background:accumulate;stop-color:#000000;stop-opacity:1" />
    <path
       style="color:#000000;font-style:normal;font-variant:normal;font-weight:normal;font-stretch:normal;font-size:medium;line-height:normal;font-family:sans-serif;font-variant-ligatures:normal;font-variant-position:normal;font-variant-caps:normal;font-variant-numeric:normal;font-variant-alternates:normal;font-variant-east-asian:normal;font-feature-settings:normal;font-variation-settings:normal;text-indent:0;text-align:start;text-decoration:none;text-decoration-line:none;text-decoration-style:solid;text-decoration-color:#000000;letter-spacing:normal;word-spacing:normal;text-transform:none;writing-mode:lr-tb;direction:ltr;text-orientation:mixed;dominant-baseline:auto;baseline-shift:baseline;text-anchor:start;white-space:normal;shape-padding:0;shape-margin:0;inline-size:0;clip-rule:nonzero;display:inline;overflow:visible;visibility:visible;opacity:1;isolation:auto;mix-blend-mode:normal;color-interpolation:sRGB;color-interpolation-filters:linearRGB;solid-color:#000000;solid-opacity:1;vector-effect:none;fill:url(#linearGradient867);fill-opacity:1;fill-rule:nonzero;stroke:none;stroke-width:4.165;stroke-linecap:butt;stroke-linejoin:miter;stroke-miterlimit:4;stroke-dasharray:none;stroke-dashoffset:0;stroke-opacity:1;color-rendering:auto;image-rendering:auto;shape-rendering:auto;text-rendering:auto;enable-background:accumulate;stop-color:#000000;stop-opacity:1"
       d="m 119.68621,179.60118 15.28538,5.72927 3.92076,-17.8035 -23.46416,-36.71755 -6.15638,-1.89714 25.18142,39.4048 -2.517,11.42929 -9.48898,-3.55762 -4.06241,-6.00017 -4.77129,-0.0901 z"
       id="path843"
       sodipodi:nodetypes="ccccccccccc" />
    <g
       style="fill:#d45500"
       id="g905"
       transform="matrix(0.26458333,0,0,0.26458333,98.689515,138.75506)">
      <g
         style="fill:#d45500"
         id="Pocket">
        <path
           style="fill:#d45500"
           id="path845"
           d="M 53.172897,14.3506 C 53.033195,13.0107 51.907299,12 50.554699,12 H 43 V 6 C 43,2.6914001 40.307701,0 36.9991,0 h -10 C 23.6914,0 21,2.6914001 21,6 v 6 h -7.5839 c -1.3682,0 -2.504901,1.022 -2.6436,2.377 L 6.0137,61.0313 C 5.9366,61.791 6.1875,62.5518 6.7021999,63.1143 7.2149,63.6768 7.9463,64 8.71,64 h 46.5117 c 0.781299,0 1.531299,-0.330101 2.061496,-0.910198 0.526402,-0.580002 0.782303,-1.359303 0.703202,-2.136704 v -9.99e-4 z M 23,6 c 0,-2.2056 1.794001,-4 3.9991,-4 h 10 C 39.205101,2 41,3.7944 41,6 v 6 H 23 Z M 55.804699,61.744099 C 55.655296,61.9063 55.443398,62 55.221699,62 H 8.71 C 8.5079002,62 8.3163995,61.916 8.1807003,61.766602 8.0479002,61.622101 7.9833999,61.428699 8.0038996,61.234402 L 12.7627,14.580101 C 12.7959,14.2495 13.0772,14 13.4161,14 H 21 v 5.183901 c -1.162201,0.4135 -2,1.5126 -2,2.816099 0,1.656099 1.344,3 3,3 1.656,0 3,-1.343901 3,-3 0,-1.303499 -0.837799,-2.4025 -2,-2.816099 V 14 h 18 v 5.183901 c -1.162201,0.4135 -2,1.5126 -2,2.816099 0,1.656099 1.344002,3 3,3 1.655998,0 3,-1.343901 3,-3 0,-1.303499 -0.837803,-2.4025 -2,-2.816099 V 14 h 7.554699 c 0.325199,0 0.595699,0.2397 0.627998,0.5566 l 4.813401,46.5997 c 0.0225,0.214801 -0.0488,0.429599 -0.191399,0.587799 z" />
        <path
           style="fill:#d45500"
           id="path847"
           d="M 38,53 H 26 c -0.5527,0 -1,0.4473 -1,1 0,0.5527 0.4473,1 1,1 h 12 c 0.552799,0 1,-0.4473 1,-1 0,-0.5527 -0.447201,-1 -1,-1 z" />
      </g>
      <g
         style="fill:#d45500"
         id="g850" />
      <g
         style="fill:#d45500"
         id="g852" />
      <g
         style="fill:#d45500"
         id="g854" />
      <g
         style="fill:#d45500"
         id="g856" />
      <g
         style="fill:#d45500"
         id="g858" />
      <g
         style="fill:#d45500"
         id="g860" />
      <g
         style="fill:#d45500"
         id="g862" />
      <g
         style="fill:#d45500"
         id="g864" />
      <g
         style="fill:#d45500"
         id="g866" />
      <g
         style="fill:#d45500"
         id="g868" />
      <g
         style="fill:#d45500"
         id="g870" />
      <g
         style="fill:#d45500"
         id="g872" />
      <g
         style="fill:#d45500"
         id="g874" />
      <g
         style="fill:#d45500"
         id="g876" />
      <g
         style="fill:#d45500"
         id="g878" />
    </g>
  </g>
</svg>
